<svg width="36" height="36" viewBox="0 0 36 36" fill="none" xmlns="http://www.w3.org/2000/svg">
<circle cx="18" cy="18" r="17.5" stroke="#CBCBCB"/>
<path d="M25.3845 6.7952C25.3845 6.35601 25.0229 6.00005 24.5768 6H16.4999V7.59034H24.5769C25.0229 7.59034 25.3845 7.23438 25.3845 6.7952Z" fill="#F8CCA4"/>
<path d="M24.5769 27.4698H16.4999V29.0602H24.5769C25.023 29.0602 25.3846 28.7042 25.3846 28.265C25.3846 27.8258 25.0229 27.4698 24.5769 27.4698Z" fill="#F8CCA4"/>
<path d="M17.7115 28.0121C17.9345 28.0121 18.1153 27.8341 18.1153 27.6145C18.1153 27.3949 17.9345 27.2169 17.7115 27.2169C17.4885 27.2169 17.3077 27.3949 17.3077 27.6145C17.3077 27.8341 17.4885 28.0121 17.7115 28.0121Z" fill="#565656"/>
<path d="M19.3269 28.0121C19.55 28.0121 19.7308 27.8341 19.7308 27.6145C19.7308 27.3949 19.55 27.2169 19.3269 27.2169C19.1039 27.2169 18.9231 27.3949 18.9231 27.6145C18.9231 27.8341 19.1039 28.0121 19.3269 28.0121Z" fill="#565656"/>
<path d="M20.9423 28.0121C21.1654 28.0121 21.3462 27.8341 21.3462 27.6145C21.3462 27.3949 21.1654 27.2169 20.9423 27.2169C20.7193 27.2169 20.5385 27.3949 20.5385 27.6145C20.5385 27.8341 20.7193 28.0121 20.9423 28.0121Z" fill="#565656"/>
<path d="M21.5577 28.0121C21.7807 28.0121 21.9615 27.8341 21.9615 27.6145C21.9615 27.3949 21.7807 27.2169 21.5577 27.2169C21.3347 27.2169 21.1539 27.3949 21.1539 27.6145C21.1539 27.8341 21.3347 28.0121 21.5577 28.0121Z" fill="#565656"/>
<path d="M18.5192 27.2169C18.7423 27.2169 18.9231 27.0389 18.9231 26.8193C18.9231 26.5998 18.7423 26.4218 18.5192 26.4218C18.2962 26.4218 18.1154 26.5998 18.1154 26.8193C18.1154 27.0389 18.2962 27.2169 18.5192 27.2169Z" fill="#565656"/>
<path d="M20.1346 27.2169C20.3576 27.2169 20.5384 27.0389 20.5384 26.8193C20.5384 26.5998 20.3576 26.4218 20.1346 26.4218C19.9116 26.4218 19.7308 26.5998 19.7308 26.8193C19.7308 27.0389 19.9116 27.2169 20.1346 27.2169Z" fill="#565656"/>
<path d="M21.75 27.2169C21.973 27.2169 22.1538 27.0389 22.1538 26.8193C22.1538 26.5998 21.973 26.4218 21.75 26.4218C21.5269 26.4218 21.3461 26.5998 21.3461 26.8193C21.3461 27.0389 21.5269 27.2169 21.75 27.2169Z" fill="#565656"/>
<path d="M17.7115 19.6627C17.9345 19.6627 18.1153 19.4847 18.1153 19.2651C18.1153 19.0456 17.9345 18.8676 17.7115 18.8676C17.4885 18.8676 17.3077 19.0456 17.3077 19.2651C17.3077 19.4847 17.4885 19.6627 17.7115 19.6627Z" fill="#565656"/>
<path d="M18.5192 15.2892C18.7423 15.2892 18.9231 15.1112 18.9231 14.8916C18.9231 14.672 18.7423 14.494 18.5192 14.494C18.2962 14.494 18.1154 14.672 18.1154 14.8916C18.1154 15.1112 18.2962 15.2892 18.5192 15.2892Z" fill="#565656"/>
<path d="M20.1346 15.2892C20.3576 15.2892 20.5384 15.1112 20.5384 14.8916C20.5384 14.672 20.3576 14.494 20.1346 14.494C19.9116 14.494 19.7308 14.672 19.7308 14.8916C19.7308 15.1112 19.9116 15.2892 20.1346 15.2892Z" fill="#565656"/>
<path d="M19.3269 14.494C19.55 14.494 19.7308 14.316 19.7308 14.0964C19.7308 13.8769 19.55 13.6989 19.3269 13.6989C19.1039 13.6989 18.9231 13.8769 18.9231 14.0964C18.9231 14.316 19.1039 14.494 19.3269 14.494Z" fill="#565656"/>
<path d="M20.1346 13.6988C20.3576 13.6988 20.5384 13.5208 20.5384 13.3013C20.5384 13.0817 20.3576 12.9037 20.1346 12.9037C19.9116 12.9037 19.7308 13.0817 19.7308 13.3013C19.7308 13.5208 19.9116 13.6988 20.1346 13.6988Z" fill="#565656"/>
<path d="M18.5192 16.8796C18.7423 16.8796 18.9231 16.7016 18.9231 16.482C18.9231 16.2625 18.7423 16.0845 18.5192 16.0845C18.2962 16.0845 18.1154 16.2625 18.1154 16.482C18.1154 16.7016 18.2962 16.8796 18.5192 16.8796Z" fill="#565656"/>
<path d="M17.7115 16.0843C17.9345 16.0843 18.1153 15.9063 18.1153 15.6868C18.1153 15.4672 17.9345 15.2892 17.7115 15.2892C17.4885 15.2892 17.3077 15.4672 17.3077 15.6868C17.3077 15.9063 17.4885 16.0843 17.7115 16.0843Z" fill="#565656"/>
<path d="M19.3269 16.0843C19.55 16.0843 19.7308 15.9063 19.7308 15.6868C19.7308 15.4672 19.55 15.2892 19.3269 15.2892C19.1039 15.2892 18.9231 15.4672 18.9231 15.6868C18.9231 15.9063 19.1039 16.0843 19.3269 16.0843Z" fill="#565656"/>
<path d="M17.7115 20.8555C17.9345 20.8555 18.1153 20.6775 18.1153 20.4579C18.1153 20.2383 17.9345 20.0603 17.7115 20.0603C17.4885 20.0603 17.3077 20.2383 17.3077 20.4579C17.3077 20.6775 17.4885 20.8555 17.7115 20.8555Z" fill="#565656"/>
<path d="M17.7115 22.0482C17.9345 22.0482 18.1153 21.8702 18.1153 21.6506C18.1153 21.4311 17.9345 21.2531 17.7115 21.2531C17.4885 21.2531 17.3077 21.4311 17.3077 21.6506C17.3077 21.8702 17.4885 22.0482 17.7115 22.0482Z" fill="#565656"/>
<path d="M17.7115 23.241C17.9345 23.241 18.1153 23.0629 18.1153 22.8434C18.1153 22.6238 17.9345 22.4458 17.7115 22.4458C17.4885 22.4458 17.3077 22.6238 17.3077 22.8434C17.3077 23.0629 17.4885 23.241 17.7115 23.241Z" fill="#565656"/>
<path d="M17.7115 24.4338C17.9345 24.4338 18.1153 24.2558 18.1153 24.0362C18.1153 23.8167 17.9345 23.6387 17.7115 23.6387C17.4885 23.6387 17.3077 23.8167 17.3077 24.0362C17.3077 24.2558 17.4885 24.4338 17.7115 24.4338Z" fill="#565656"/>
<path d="M17.7115 25.6266C17.9345 25.6266 18.1153 25.4486 18.1153 25.229C18.1153 25.0094 17.9345 24.8314 17.7115 24.8314C17.4885 24.8314 17.3077 25.0094 17.3077 25.229C17.3077 25.4486 17.4885 25.6266 17.7115 25.6266Z" fill="#565656"/>
<path d="M19.3269 26.4217C19.55 26.4217 19.7308 26.2437 19.7308 26.0242C19.7308 25.8046 19.55 25.6266 19.3269 25.6266C19.1039 25.6266 18.9231 25.8046 18.9231 26.0242C18.9231 26.2437 19.1039 26.4217 19.3269 26.4217Z" fill="#565656"/>
<path d="M20.9423 26.4217C21.1654 26.4217 21.3462 26.2437 21.3462 26.0242C21.3462 25.8046 21.1654 25.6266 20.9423 25.6266C20.7193 25.6266 20.5385 25.8046 20.5385 26.0242C20.5385 26.2437 20.7193 26.4217 20.9423 26.4217Z" fill="#565656"/>
<path d="M14.0769 11.3133H12.0576C11.8346 11.3133 11.6538 11.1353 11.6538 10.9158C11.6538 10.6962 11.8346 10.5182 12.0576 10.5182H14.0769C14.2999 10.5182 14.4807 10.6962 14.4807 10.9158C14.4807 11.1354 14.2999 11.3133 14.0769 11.3133Z" fill="#565656"/>
<path d="M14.0769 14.0965H10.0384C9.81537 14.0965 9.63458 13.9185 9.63458 13.699C9.63458 13.4794 9.81537 13.3014 10.0384 13.3014H14.0769C14.2999 13.3014 14.4807 13.4794 14.4807 13.699C14.4807 13.9185 14.2999 14.0965 14.0769 14.0965Z" fill="#565656"/>
<path d="M14.0769 16.8796H8.01925C7.7962 16.8796 7.61542 16.7016 7.61542 16.482C7.61542 16.2625 7.79625 16.0845 8.01925 16.0845H14.0769C14.3 16.0845 14.4808 16.2625 14.4808 16.482C14.4808 16.7016 14.3 16.8796 14.0769 16.8796Z" fill="#565656"/>
<path d="M14.0769 19.6627H6.40383C6.18078 19.6627 6 19.4847 6 19.2651C6 19.0456 6.18083 18.8676 6.40383 18.8676H14.0769C14.2999 18.8676 14.4807 19.0455 14.4807 19.2651C14.4807 19.4847 14.2999 19.6627 14.0769 19.6627Z" fill="#565656"/>
<path d="M14.0769 22.4459H8.82693C8.60388 22.4459 8.4231 22.2679 8.4231 22.0483C8.4231 21.8288 8.60393 21.6508 8.82693 21.6508H14.0769C14.3 21.6508 14.4807 21.8287 14.4807 22.0483C14.4807 22.2679 14.3 22.4459 14.0769 22.4459Z" fill="#565656"/>
<path d="M14.0769 25.229H11.25C11.0269 25.229 10.8461 25.051 10.8461 24.8314C10.8461 24.6119 11.027 24.4338 11.25 24.4338H14.0769C14.2999 24.4338 14.4807 24.6118 14.4807 24.8314C14.4807 25.051 14.2999 25.229 14.0769 25.229Z" fill="#565656"/>
<path d="M25.7884 8.53019H16.5C16.2769 8.53019 16.0961 8.35216 16.0961 8.13262C16.0961 7.91308 16.277 7.73504 16.5 7.73504H25.7884C26.0115 7.73504 26.1923 7.55701 26.1923 7.33747C26.1923 7.11793 26.0115 6.9399 25.7884 6.9399H16.5C16.2769 6.9399 16.0961 6.76187 16.0961 6.54232C16.0961 6.32278 16.2769 6.14465 16.5 6.14465H25.7884C26.4575 6.14465 27 6.6787 27 7.33742C27 7.99615 26.4575 8.53019 25.7884 8.53019Z" fill="#565656"/>
<path d="M18.5194 18.4699C18.3268 18.4701 18.161 18.3363 18.1231 18.1504C18.0853 17.9645 18.186 17.7782 18.3638 17.7053C21.1515 16.5674 22.9668 13.8867 22.9615 10.9156V8.53013H16.5C16.2769 8.53013 16.0961 8.3521 16.0961 8.13256C16.0961 7.91302 16.277 7.73499 16.5 7.73499H23.3654C23.4725 7.73494 23.5752 7.77683 23.651 7.85142C23.7267 7.92597 23.7692 8.02712 23.7692 8.13261V10.9157C23.7753 14.2079 21.7637 17.1785 18.6746 18.4392C18.6255 18.4595 18.5727 18.4699 18.5194 18.4699Z" fill="#565656"/>
<path d="M23.3654 28.4097H16.5C16.2769 28.4097 16.0961 28.2316 16.0961 28.0121C16.0961 27.7925 16.277 27.6145 16.5 27.6145H22.9615V25.229C22.9668 22.2579 21.1515 19.5771 18.3638 18.4393C18.2307 18.3846 18.1372 18.2642 18.1187 18.1233C18.1002 17.9825 18.1595 17.8426 18.2741 17.7564C18.3887 17.6702 18.5414 17.6508 18.6746 17.7054C21.7637 18.9661 23.7753 21.9368 23.7692 25.229V28.0121C23.7692 28.1175 23.7267 28.2187 23.6509 28.2933C23.5752 28.3678 23.4725 28.4097 23.3654 28.4097Z" fill="#565656"/>
<path d="M25.7884 30.0001H16.5C16.2769 30.0001 16.0961 29.8221 16.0961 29.6025C16.0961 29.3829 16.277 29.2049 16.5 29.2049H25.7884C26.0115 29.2049 26.1923 29.0269 26.1923 28.8073C26.1923 28.5878 26.0115 28.4098 25.7884 28.4098H16.5C16.2769 28.4098 16.0961 28.2317 16.0961 28.0122C16.0961 27.7926 16.277 27.6146 16.5 27.6146H25.7884C26.4575 27.6146 27 28.1487 27 28.8074C27 29.4661 26.4575 30.0001 25.7884 30.0001Z" fill="#565656"/>
</svg>
